# xmcd
#
# Track frame offsets:
#	150
#	31022
#	49992
#	72771
#	99108
#	130304
#	155213
#	186053
#	201558
#	228264
#
# Disc length: 4042 seconds
#
# Revision: 2
# Processed by: cddbd v1.5.2PL0 Copyright (c) Steve Scherf et al.
# Submitted via: EZCDDA 4.3.2
#
DISCID=850fc80a
DTITLE=UCHPA - -CONCIERTO-
DYEAR=1900
DGENRE=
TTITLE0=Ananao
TTITLE1=Miskillañam Kani
TTITLE2=Añas Blues
TTITLE3=Kusi Kusun
TTITLE4=Yanapaway Yuksimuyta
TTITLE5=Peru Llaqta
TTITLE6=Uyariway Qayamuwaspin
TTITLE7=Pitaqmi Kanki?
TTITLE8=Chachaschay
TTITLE9=Corazon Contento
EXTD=
EXTT0=
EXTT1=
EXTT2=
EXTT3=
EXTT4=
EXTT5=
EXTT6=
EXTT7=
EXTT8=
EXTT9=
PLAYORDER=
